<mxfile host="app.diagrams.net" agent="Mozilla/5.0 (Windows NT 10.0; Win64; x64) AppleWebKit/537.36 (KHTML, like Gecko) Chrome/131.0.0.0 Safari/537.36 Edg/131.0.0.0" version="25.0.3">
  <diagram name="Page-1" id="vvOnmgUvkWJnOEx_Jszr">
    <mxGraphModel dx="2934" dy="2230" grid="1" gridSize="10" guides="1" tooltips="1" connect="1" arrows="1" fold="1" page="1" pageScale="1" pageWidth="850" pageHeight="1100" math="0" shadow="0">
      <root>
        <mxCell id="0" />
        <mxCell id="1" parent="0" />
        <mxCell id="DAR8rqzq_KjJrvnGD-TW-6" value="" style="edgeStyle=orthogonalEdgeStyle;rounded=0;orthogonalLoop=1;jettySize=auto;html=1;" edge="1" parent="1" source="DAR8rqzq_KjJrvnGD-TW-3" target="DAR8rqzq_KjJrvnGD-TW-5">
          <mxGeometry relative="1" as="geometry" />
        </mxCell>
        <mxCell id="DAR8rqzq_KjJrvnGD-TW-3" value="&lt;font data-font-src=&quot;https://fonts.googleapis.com/css?family=Sarabun&quot; face=&quot;Sarabun&quot;&gt;Start&lt;/font&gt;" style="ellipse;whiteSpace=wrap;html=1;" vertex="1" parent="1">
          <mxGeometry x="-655.0000000000001" y="-1020" width="130" height="30" as="geometry" />
        </mxCell>
        <mxCell id="DAR8rqzq_KjJrvnGD-TW-24" value="" style="edgeStyle=orthogonalEdgeStyle;rounded=0;orthogonalLoop=1;jettySize=auto;html=1;" edge="1" parent="1" source="DAR8rqzq_KjJrvnGD-TW-4" target="DAR8rqzq_KjJrvnGD-TW-23">
          <mxGeometry relative="1" as="geometry" />
        </mxCell>
        <mxCell id="DAR8rqzq_KjJrvnGD-TW-4" value="ปร้นค่าตัวแปร name1" style="rounded=0;whiteSpace=wrap;html=1;shape=parallelogram;perimeter=parallelogramPerimeter;fixedSize=1;" vertex="1" parent="1">
          <mxGeometry x="-670" y="-400" width="160" height="40" as="geometry" />
        </mxCell>
        <mxCell id="DAR8rqzq_KjJrvnGD-TW-8" value="" style="edgeStyle=orthogonalEdgeStyle;rounded=0;orthogonalLoop=1;jettySize=auto;html=1;" edge="1" parent="1" source="DAR8rqzq_KjJrvnGD-TW-5" target="DAR8rqzq_KjJrvnGD-TW-7">
          <mxGeometry relative="1" as="geometry" />
        </mxCell>
        <mxCell id="DAR8rqzq_KjJrvnGD-TW-5" value="กำหนดตัวแปร name1" style="rounded=0;whiteSpace=wrap;html=1;" vertex="1" parent="1">
          <mxGeometry x="-670" y="-960" width="160" height="40" as="geometry" />
        </mxCell>
        <mxCell id="DAR8rqzq_KjJrvnGD-TW-7" value="กำหนดตัวแปร age1" style="rounded=0;whiteSpace=wrap;html=1;" vertex="1" parent="1">
          <mxGeometry x="-670" y="-890" width="160" height="40" as="geometry" />
        </mxCell>
        <mxCell id="DAR8rqzq_KjJrvnGD-TW-9" value="" style="edgeStyle=orthogonalEdgeStyle;rounded=0;orthogonalLoop=1;jettySize=auto;html=1;" edge="1" target="DAR8rqzq_KjJrvnGD-TW-11" parent="1">
          <mxGeometry relative="1" as="geometry">
            <mxPoint x="-590" y="-850" as="sourcePoint" />
          </mxGeometry>
        </mxCell>
        <mxCell id="DAR8rqzq_KjJrvnGD-TW-10" value="" style="edgeStyle=orthogonalEdgeStyle;rounded=0;orthogonalLoop=1;jettySize=auto;html=1;" edge="1" source="DAR8rqzq_KjJrvnGD-TW-11" target="DAR8rqzq_KjJrvnGD-TW-12" parent="1">
          <mxGeometry relative="1" as="geometry" />
        </mxCell>
        <mxCell id="DAR8rqzq_KjJrvnGD-TW-11" value="กำหนดตัวแปร name2" style="rounded=0;whiteSpace=wrap;html=1;" vertex="1" parent="1">
          <mxGeometry x="-670" y="-820" width="160" height="40" as="geometry" />
        </mxCell>
        <mxCell id="DAR8rqzq_KjJrvnGD-TW-20" value="" style="edgeStyle=orthogonalEdgeStyle;rounded=0;orthogonalLoop=1;jettySize=auto;html=1;" edge="1" parent="1" source="DAR8rqzq_KjJrvnGD-TW-12" target="DAR8rqzq_KjJrvnGD-TW-14">
          <mxGeometry relative="1" as="geometry" />
        </mxCell>
        <mxCell id="DAR8rqzq_KjJrvnGD-TW-12" value="กำหนดตัวแปร age3" style="rounded=0;whiteSpace=wrap;html=1;" vertex="1" parent="1">
          <mxGeometry x="-670" y="-750" width="160" height="40" as="geometry" />
        </mxCell>
        <mxCell id="DAR8rqzq_KjJrvnGD-TW-13" value="" style="edgeStyle=orthogonalEdgeStyle;rounded=0;orthogonalLoop=1;jettySize=auto;html=1;" edge="1" parent="1" source="DAR8rqzq_KjJrvnGD-TW-14" target="DAR8rqzq_KjJrvnGD-TW-16">
          <mxGeometry relative="1" as="geometry" />
        </mxCell>
        <mxCell id="DAR8rqzq_KjJrvnGD-TW-14" value="กรอกค่าตัวแปร name1" style="rounded=0;whiteSpace=wrap;html=1;shape=parallelogram;perimeter=parallelogramPerimeter;fixedSize=1;" vertex="1" parent="1">
          <mxGeometry x="-670" y="-680" width="160" height="40" as="geometry" />
        </mxCell>
        <mxCell id="DAR8rqzq_KjJrvnGD-TW-15" value="" style="edgeStyle=orthogonalEdgeStyle;rounded=0;orthogonalLoop=1;jettySize=auto;html=1;" edge="1" parent="1" source="DAR8rqzq_KjJrvnGD-TW-16" target="DAR8rqzq_KjJrvnGD-TW-19">
          <mxGeometry relative="1" as="geometry" />
        </mxCell>
        <mxCell id="DAR8rqzq_KjJrvnGD-TW-16" value="กรอกค่าตัวแปร age1" style="rounded=0;whiteSpace=wrap;html=1;shape=parallelogram;perimeter=parallelogramPerimeter;fixedSize=1;" vertex="1" parent="1">
          <mxGeometry x="-670" y="-610" width="160" height="40" as="geometry" />
        </mxCell>
        <mxCell id="DAR8rqzq_KjJrvnGD-TW-17" value="" style="edgeStyle=orthogonalEdgeStyle;rounded=0;orthogonalLoop=1;jettySize=auto;html=1;" edge="1" parent="1" source="DAR8rqzq_KjJrvnGD-TW-19" target="DAR8rqzq_KjJrvnGD-TW-18">
          <mxGeometry relative="1" as="geometry" />
        </mxCell>
        <mxCell id="DAR8rqzq_KjJrvnGD-TW-22" value="" style="edgeStyle=orthogonalEdgeStyle;rounded=0;orthogonalLoop=1;jettySize=auto;html=1;" edge="1" parent="1" source="DAR8rqzq_KjJrvnGD-TW-18" target="DAR8rqzq_KjJrvnGD-TW-4">
          <mxGeometry relative="1" as="geometry" />
        </mxCell>
        <mxCell id="DAR8rqzq_KjJrvnGD-TW-18" value="กรอกค่าตัวแปร age2" style="rounded=0;whiteSpace=wrap;html=1;shape=parallelogram;perimeter=parallelogramPerimeter;fixedSize=1;" vertex="1" parent="1">
          <mxGeometry x="-670" y="-470" width="160" height="40" as="geometry" />
        </mxCell>
        <mxCell id="DAR8rqzq_KjJrvnGD-TW-19" value="กรอกค่าตัวแปร name2" style="rounded=0;whiteSpace=wrap;html=1;shape=parallelogram;perimeter=parallelogramPerimeter;fixedSize=1;" vertex="1" parent="1">
          <mxGeometry x="-670" y="-540" width="160" height="40" as="geometry" />
        </mxCell>
        <mxCell id="DAR8rqzq_KjJrvnGD-TW-21" value="swap" style="shape=process;whiteSpace=wrap;html=1;backgroundOutline=1;" vertex="1" parent="1">
          <mxGeometry x="-662" y="-260" width="144" height="60" as="geometry" />
        </mxCell>
        <mxCell id="DAR8rqzq_KjJrvnGD-TW-25" value="" style="edgeStyle=orthogonalEdgeStyle;rounded=0;orthogonalLoop=1;jettySize=auto;html=1;" edge="1" parent="1" source="DAR8rqzq_KjJrvnGD-TW-23" target="DAR8rqzq_KjJrvnGD-TW-21">
          <mxGeometry relative="1" as="geometry" />
        </mxCell>
        <mxCell id="DAR8rqzq_KjJrvnGD-TW-23" value="ปร้นค่าตัวแปร age1" style="rounded=0;whiteSpace=wrap;html=1;shape=parallelogram;perimeter=parallelogramPerimeter;fixedSize=1;" vertex="1" parent="1">
          <mxGeometry x="-670" y="-330" width="160" height="40" as="geometry" />
        </mxCell>
        <mxCell id="DAR8rqzq_KjJrvnGD-TW-28" value="" style="edgeStyle=orthogonalEdgeStyle;rounded=0;orthogonalLoop=1;jettySize=auto;html=1;" edge="1" parent="1" source="DAR8rqzq_KjJrvnGD-TW-26" target="DAR8rqzq_KjJrvnGD-TW-27">
          <mxGeometry relative="1" as="geometry" />
        </mxCell>
        <mxCell id="DAR8rqzq_KjJrvnGD-TW-26" value="start swap" style="shape=process;whiteSpace=wrap;html=1;backgroundOutline=1;" vertex="1" parent="1">
          <mxGeometry x="-340" y="-1010" width="144" height="60" as="geometry" />
        </mxCell>
        <mxCell id="DAR8rqzq_KjJrvnGD-TW-33" value="" style="edgeStyle=orthogonalEdgeStyle;rounded=0;orthogonalLoop=1;jettySize=auto;html=1;" edge="1" parent="1" source="DAR8rqzq_KjJrvnGD-TW-27" target="DAR8rqzq_KjJrvnGD-TW-32">
          <mxGeometry relative="1" as="geometry" />
        </mxCell>
        <mxCell id="DAR8rqzq_KjJrvnGD-TW-27" value="สลับ age1 กับ age2" style="rounded=0;whiteSpace=wrap;html=1;" vertex="1" parent="1">
          <mxGeometry x="-348" y="-920" width="160" height="40" as="geometry" />
        </mxCell>
        <mxCell id="DAR8rqzq_KjJrvnGD-TW-32" value="End swap" style="shape=process;whiteSpace=wrap;html=1;backgroundOutline=1;" vertex="1" parent="1">
          <mxGeometry x="-340" y="-850" width="144" height="60" as="geometry" />
        </mxCell>
      </root>
    </mxGraphModel>
  </diagram>
</mxfile>
